<svg xmlns="http://www.w3.org/2000/svg" viewBox="0 0 512 512">
  <defs>
    <linearGradient id="bg" x1="0" y1="0" x2="1" y2="1"><stop offset="0" stop-color="#D66A42"/><stop offset="1" stop-color="#A63F22"/></linearGradient>
    <linearGradient id="mand" x1="0" y1="0" x2="0" y2="1"><stop offset="0" stop-color="#6E9444"/><stop offset="1" stop-color="#4E6E2E"/></linearGradient>
    <radialGradient id="tom" cx=".35" cy=".35" r=".8"><stop offset="0" stop-color="#FF7A5C"/><stop offset="1" stop-color="#D62F22"/></radialGradient>
    <clipPath id="mandclip"><path d="M104 262h304l-30 142a26 26 0 0 1-25 20H159a26 26 0 0 1-25-20z"/></clipPath>
  </defs>
  <rect width="512" height="512" fill="url(#bg)"/>
  <circle cx="256" cy="262" r="196" fill="#FBEFE3"/>
  <!-- hengsel -->
  <path d="M150 262c0-92 48-150 106-150s106 58 106 150" fill="none" stroke="#8E3517" stroke-width="18" stroke-linecap="round"/>
  <!-- prei / loof achteraan -->
  <path d="M300 262c6-60 22-104 50-132" stroke="#3E8E2F" stroke-width="22" stroke-linecap="round" fill="none"/>
  <path d="M300 262c14-50 38-84 72-102" stroke="#6BBF4A" stroke-width="16" stroke-linecap="round" fill="none"/>
  <path d="M298 262c2-40 6-66 14-92" stroke="#EAF5D8" stroke-width="18" stroke-linecap="round" fill="none"/>
  <!-- wortel -->
  <g transform="rotate(-24 196 210)">
    <path d="M178 150c-10-26-4-44 8-52M196 146c0-30 8-46 22-52M206 152c12-22 28-30 44-28" stroke="#4FAE3A" stroke-width="12" stroke-linecap="round" fill="none"/>
    <path d="M168 154h56l-22 150a6 6 0 0 1-12 0z" fill="#FF9A2E"/>
    <path d="M178 190h18M184 226h14M188 262h10" stroke="#E07A14" stroke-width="6" stroke-linecap="round"/>
  </g>
  <!-- broccoli -->
  <path d="M244 262l6-50h20l6 50z" fill="#8CC66A"/>
  <g fill="#3E9A35"><circle cx="236" cy="200" r="30"/><circle cx="284" cy="200" r="30"/><circle cx="260" cy="172" r="32"/></g>
  <g fill="#5DB84A"><circle cx="248" cy="178" r="10"/><circle cx="276" cy="190" r="9"/><circle cx="236" cy="206" r="8"/></g>
  <!-- tomaat -->
  <circle cx="340" cy="238" r="42" fill="url(#tom)"/>
  <path d="M340 198l-8 12-14-4 10 12-10 10 14-4 8 12 8-12 14 4-10-10 10-12-14 4z" fill="#3E8E2F"/>
  <!-- appel links -->
  <circle cx="160" cy="244" r="36" fill="#A4D65E"/>
  <circle cx="148" cy="232" r="10" fill="#FFFFFF" opacity=".35"/>
  <!-- mand -->
  <path d="M104 262h304l-30 142a26 26 0 0 1-25 20H159a26 26 0 0 1-25-20z" fill="url(#mand)"/>
  <g clip-path="url(#mandclip)" stroke="#FFFFFF" stroke-width="10" opacity=".22">
    <path d="M190 262v170M256 262v170M322 262v170M100 330h320"/>
  </g>
  <rect x="84" y="244" width="344" height="40" rx="20" fill="#3F5A24"/><rect x="84" y="244" width="344" height="30" rx="15" fill="#7FA653"/>
  
</svg>
